<?xml version="1.0" encoding="utf-8"?>
<!-- Generator: Adobe Illustrator 16.2.1, SVG Export Plug-In . SVG Version: 6.00 Build 0)  -->
<!DOCTYPE svg PUBLIC "-//W3C//DTD SVG 1.1//EN" "http://www.w3.org/Graphics/SVG/1.1/DTD/svg11.dtd">
<svg version="1.1" id="Isolation_Mode" xmlns="http://www.w3.org/2000/svg" xmlns:xlink="http://www.w3.org/1999/xlink" x="0px"
	 y="0px" width="1224px" height="1584px" viewBox="0 0 1224 1584" enable-background="new 0 0 1224 1584" xml:space="preserve">
<path fill="#FFFFFF" d="M984.295,1437.781h-12.541v12.525h12.541c2.986,0,5.365,2.428,5.365,5.383c0,2.988-2.379,5.375-5.365,5.375
	h-12.541v12.549h12.541c9.891,0,17.902-8.035,17.902-17.924C1002.197,1445.805,994.186,1437.781,984.295,1437.781 M912.842,1504.064
	c14.998,0,27.938-8.789,33.986-21.508h15.98v21.508h8.945v-21.508h12.541c14.85,0,26.869-12.031,26.869-26.867
	c0-14.822-12.02-26.861-26.869-26.861h-21.486v32.236h-12.762c-2.594-18.225-18.268-32.236-37.205-32.236h-44.107l-43.855,75.236
	h10.467l12.525-21.508h45.086v21.508H912.842z M1023.717,1455.689c0,21.764-17.66,39.399-39.422,39.399v21.5h-34.02v-16.765
	c-9.201,10.287-22.553,16.765-37.434,16.765h-32.436v-21.5h-25.33l-12.539,21.5h-39.801l58.494-100.3h51.611
	c14.881,0,28.232,6.494,37.434,16.783v-16.783h34.02C1006.057,1416.289,1023.717,1433.949,1023.717,1455.689 M880.406,1437.781
	v23.283h-19.984l-7.309,12.549h39.844v-35.832H880.406z M941.494,1466.434c0,15.828-12.842,28.655-28.652,28.655h-10.934v-12.532
	h10.934c8.898,0,16.111-7.215,16.111-16.123c0-8.881-7.213-16.127-16.111-16.127h-10.934v-12.525h10.934
	C928.652,1437.781,941.494,1450.613,941.494,1466.434 M996.473,1511.236v-1.434h1.043c0.703,0,0.893,0.213,0.893,0.639
	c0,0.422-0.189,0.773-1.008,0.795 M997.215,1512.109c0.295,0.033,0.584,0,0.807,0.236c0.246,0.26,0.246,0.707,0.309,1.191
	c0.049,0.328,0.123,0.68,0.197,1.002h1.109c-0.184-0.504-0.25-1.092-0.326-1.617c-0.082-0.615-0.174-0.958-0.955-1.107v-0.039
	c0.756-0.148,1.145-0.656,1.145-1.297c0-1.27-1.062-1.553-2.09-1.553h-1.816v5.613h0.879v-2.43H997.215z M997.486,1516.589
	c2.643,0,4.758-2.142,4.758-4.796c0-2.623-2.115-4.756-4.758-4.756c-2.648,0-4.793,2.133-4.793,4.756
	C992.693,1514.447,994.838,1516.589,997.486,1516.589 M997.486,1515.736c-2.18,0-3.945-1.752-3.945-3.943
	c0-2.154,1.766-3.926,3.945-3.926c2.166,0,3.924,1.771,3.924,3.926C1001.41,1513.984,999.652,1515.736,997.486,1515.736"/>
</svg>
