<?xml version="1.0" encoding="utf-8"?>
<!-- Generator: Adobe Illustrator 16.2.1, SVG Export Plug-In . SVG Version: 6.00 Build 0)  -->
<!DOCTYPE svg PUBLIC "-//W3C//DTD SVG 1.1//EN" "http://www.w3.org/Graphics/SVG/1.1/DTD/svg11.dtd">
<svg version="1.1" id="Layer_1" xmlns="http://www.w3.org/2000/svg" xmlns:xlink="http://www.w3.org/1999/xlink" x="0px" y="0px"
	 width="1920px" height="1080px" viewBox="0 0 1920 1080" enable-background="new 0 0 1920 1080" xml:space="preserve">
<path d="M321,319.029v-7.729h34v-44.06c0-31.691,22.409-33.237,39.021-33.237c6.955,0,12.365,1.159,16.613,1.546v7.729
	c-7.34-1.16-12.362-1.546-18.158-1.546c-24.727,0-29.749,8.889-29.749,28.214v41.354h42.885v7.729h-42.885v190.924H355V319.029H321z
	"/>
<path d="M454.936,273.037h-7.727v-39.034h7.727V273.037z M454.936,509.953h-7.727V311.299h7.727V509.953z"/>
<path d="M655.265,443.478h-0.773c-8.114,35.17-44.044,55.654-78.044,55.654c-55.247,0-82.679-44.061-82.679-95.076
	c0-53.334,29.362-97.395,85.384-97.395c37.863,0,67.611,25.123,75.339,57.587h0.773v-52.949h7.727v192.083
	c0,54.109-30.91,79.616-82.681,79.616c-40.181,0-74.567-18.163-75.726-62.61h7.727c1.546,39.421,31.682,54.88,67.612,54.88
	c47.91,0,75.341-22.802,75.341-71.886V443.478z M579.152,314.391c-51.384,0-77.657,41.355-77.657,89.666
	c0,49.083,26.272,87.345,74.565,87.345c50.999,0,78.817-39.421,78.817-87.345C655.265,358.451,628.992,314.391,579.152,314.391z"/>
</svg>
